<svg xmlns:dc="http://purl.org/dc/elements/1.1/" xmlns:cc="http://creativecommons.org/ns#" xmlns:rdf="http://www.w3.org/1999/02/22-rdf-syntax-ns#" xmlns:svg="http://www.w3.org/2000/svg" xmlns="http://www.w3.org/2000/svg" xmlns:sodipodi="http://sodipodi.sourceforge.net/DTD/sodipodi-0.dtd" xmlns:inkscape="http://www.inkscape.org/namespaces/inkscape" version="1.1" id="Слой_1" x="0px" y="0px" viewBox="0 0 180 35" xml:space="preserve" sodipodi:docname="sberbank_ru.svg" inkscape:version="0.92.1 r15371" width="180" height="35"><metadata id="metadata61"><rdf:RDF><cc:Work rdf:about=""><dc:format>image/svg+xml</dc:format><dc:type rdf:resource="http://purl.org/dc/dcmitype/StillImage"/><dc:title/></cc:Work></rdf:RDF></metadata><defs id="defs59"/><sodipodi:namedview pagecolor="#ffffff" bordercolor="#666666" borderopacity="1" objecttolerance="10" gridtolerance="10" guidetolerance="10" inkscape:pageopacity="0" inkscape:pageshadow="2" inkscape:window-width="1920" inkscape:window-height="1018" id="namedview57" showgrid="false" inkscape:zoom="6.2809917" inkscape:cx="115.90373" inkscape:cy="2.9962936" inkscape:window-x="-8" inkscape:window-y="-8" inkscape:window-maximized="1" inkscape:current-layer="Слой_1" fit-margin-top="0" fit-margin-left="0" fit-margin-right="0" fit-margin-bottom="0" showguides="false"/><style type="text/css" id="style2">
	.st0{fill:#1A9F29;}
</style><path class="st0" d="M 32.544477,6.80131 C 32.172114,6.266376 31.799752,5.731441 31.427389,5.196507 L 10.798511,17.347162 0.81919735,11.462882 c -0.22341746,0.687773 -0.37236243,1.299127 -0.44683492,1.9869 L 10.872983,19.639738 Z" id="path24" inkscape:connector-curvature="0" style="fill:#1a9f29;stroke-width:0.75439566"/><path class="st0" d="M 10.798511,21.932314 0.07447249,15.58952 C 0,15.971616 0,16.430131 0,16.812227 0,26.823144 7.8940836,35 17.724452,35 c 9.755896,0 17.724452,-8.100437 17.724452,-18.187773 0,-2.980349 -0.670253,-5.80786 -1.936285,-8.253275 z" id="path26" inkscape:connector-curvature="0" style="fill:#1a9f29;stroke-width:0.75439566"/><path class="st0" d="M 30.012412,3.668122 C 29.491105,3.133188 28.969797,2.751092 28.44849,2.292576 L 10.798511,12.762009 2.3086471,7.79476 C 2.0107571,8.329694 1.7128672,8.941048 1.4149772,9.552402 l 9.3090608,5.502183 z" id="path28" inkscape:connector-curvature="0" style="fill:#1a9f29;stroke-width:0.75439566"/><path class="st0" d="M 26.66115,1.069869 C 25.990898,0.687773 25.320645,0.305677 24.575921,0 L 10.798511,8.176856 4.6172942,4.585153 C 4.1704592,5.043668 3.7980968,5.578603 3.3512619,6.113537 l 7.3727761,4.355895 z" id="path30" inkscape:connector-curvature="0" style="fill:#1a9f29;stroke-width:0.75439566"/></svg>